<svg xmlns="http://www.w3.org/2000/svg" viewBox="0 0 1113.76 436.92"><defs><style>.cls-1{fill:#fafbfb;}.cls-2{fill:#f8c23d;}.cls-3{fill:#fbfbfc;}.cls-4{fill:#8999bd;}</style></defs><title>pump-logo-clear-bg</title><g id="Layer_2" data-name="Layer 2"><g id="Layer_1-2" data-name="Layer 1"><path class="cls-1" d="M521,136.39c0-43.87,0-87.74-.09-131.61C520.88.91,522,0,525.74,0q31.5.27,63,0c3.49,0,4.92,1.16,6,4.47C608.89,45.83,623.2,87.1,637.43,128.4Q649,162,660.55,195.68a12.55,12.55,0,0,0,.64,1.75c.45.83.5,2.22,1.71,2.2,1.36,0,1.56-1.4,1.92-2.42q16.6-47.55,33.18-95.1,17.34-49.66,34.65-99.34a3.58,3.58,0,0,1,3.9-2.7q32.63,0,65.25,0c2.52,0,3.81.81,3.51,3.48-.06.61,0,1.24,0,1.87q0,131.24,0,262.46c0,5.3,0,5.31-5.39,5.31-15,0-30-.12-45,.08-3.62.05-4.62-1-4.61-4.62q.16-87,0-174c0-1.82,1.11-4.8-1-5.22-1.93-.39-1.92,2.78-2.51,4.4q-17.7,48.54-35.24,97.14Q697.24,230.61,683,270.23c-.75,2.09-1.87,3-4.09,3-10.5-.06-21-.14-31.49,0-3.21.06-3.6-2.14-4.34-4.17q-10-27.63-20-55.29L586,111.32c-2.2-6.1-4.36-12.22-6.58-18.32-.48-1.31-.65-3.5-2.32-3.21-1.5.26-.84,2.36-.84,3.64q0,71,0,142.1c0,11.25-.08,22.5.06,33.74,0,2.9-.82,4-3.81,4-16-.11-32-.16-48,0-3.78.05-3.54-2-3.54-4.51Q521,202.56,521,136.39Z"/><path class="cls-2" d="M460.54,112.25c0,25.87.2,51.74-.07,77.61-.18,16.86-2.79,33.36-9.63,49-11.08,25.32-30.26,41.37-56.51,49.29a119.13,119.13,0,0,1-22.05,4.25c-2,.22-3,.94-3.4,3.13-.72,4-2.19,8-2.8,12-2.43,16.08,7.82,30,23.75,33.27a69.54,69.54,0,0,0,17.48,1c5.12-.24,9.54-3.14,13.53-5.93,22.6-15.85,52.06-17.37,75.19-2.68,18.13,11.52,26,28.8,25,50.08-1.15,25.88-19.45,47-45,52-17.25,3.37-33.9,2-49.25-7.28-17.33-10.43-26-26.09-26.84-46.16-.22-4.85-.15-4.85-5.1-4.78-32.39.48-61.17-25-64.7-57.14a62.88,62.88,0,0,1,1.69-24.14c1-3.41,0-4.56-3.43-5.23-17.52-3.41-33.3-10.5-46.48-22.79-15.84-14.77-24.07-33.44-27.8-54.41A163.76,163.76,0,0,1,252,184.58q0-77.06,0-154.11c0-5.23,0-5.24,5.15-5.24h69.74c5.05,0,5.06,0,5.06,5.24,0,7.74-.1,15.5.05,23.24.06,2.94-.91,3.95-3.87,3.9-9.12-.14-18.25.07-27.37-.11-3.48-.07-4.55,1.18-4.54,4.58.09,41,0,82,.11,123,0,12.56,1.45,25,6.21,36.75,7.7,19,22.33,28.92,42.2,31.51,11,1.44,22,1.23,32.74-1.75,19.15-5.31,30.29-18.39,35.59-37.06,2.94-10.33,3.62-20.9,3.62-31.56q0-60.18,0-120.36c0-4.8-.25-5-5.14-5-7.88,0-15.75,0-23.63,0-5.3,0-5.31,0-5.31-5.49,0-7.38.17-14.76-.08-22.12-.12-3.62,1.06-4.8,4.67-4.78q34.5.18,69,0c3.46,0,4.48,1.16,4.46,4.58-.12,27.5-.07,55-.07,82.5Zm-28,267.66c0,1.5-.1,3,0,4.5,1.64,21.71,25.6,33.7,43.66,21.62,11.22-7.51,13.64-18.95,12-31.45-2.47-19-19.12-29.39-37.29-23.48C439.52,354.82,432.47,365.79,432.58,379.91Z"/><path class="cls-1" d="M855.4,136.62q0-66-.08-132c0-3.57.91-4.67,4.58-4.65,36.24.2,72.49-.24,108.72.43,23,.43,44.44,6.71,62.65,21.52a77.1,77.1,0,0,1,28.29,48.79c2.63,16,2,31.94-3.66,47.29-8.75,23.77-25.78,39.29-49.13,48.35-15.64,6.06-32,7.7-48.55,7.81-14.49.1-29,.13-43.49,0-3.52,0-4.47,1.17-4.46,4.56.1,29.87,0,59.73.14,89.6,0,3.72-.91,5-4.79,4.94q-23.05-.3-46.11,0c-3.39,0-4.18-1.07-4.18-4.29Q855.48,202.8,855.4,136.62Zm54.85-49.43q0,20.43,0,40.85c0,2.17.11,4,3.06,4,18.36-.34,36.74.89,55.07-.76a40.64,40.64,0,0,0,22.11-8.39c10.48-8.32,15-19.53,15.66-32.66,1.15-24.58-12.68-45.7-40-47.42-17.6-1.11-35.22-.2-52.83-.49-3-.05-3,1.89-3,4Q910.27,66.76,910.25,87.19Z"/><path class="cls-3" d="M.08,136.49C.08,92.64.13,48.78,0,4.92,0,1.21.87,0,4.77,0,40.88.21,77-.14,113.1.42c20.3.31,39.59,5.42,56.67,17,19.8,13.39,31.47,32,34.84,55.71,2.12,14.94,1.4,29.74-3.68,44-8.64,24.25-25.78,40.15-49.58,49.31-15.78,6.07-32.24,7.67-48.94,7.78-14.36.08-28.73.1-43.1,0-3.43,0-4.52,1-4.51,4.5.12,29.86.07,59.73.07,89.59,0,4.89,0,4.89-5,4.89-15,0-30-.11-45,.09-3.74.05-4.91-.92-4.9-4.8C.13,224.46.08,180.48.08,136.49ZM54.81,86.86c0,13.74.06,27.49-.05,41.23,0,2.89.9,4,3.87,4,15.37-.1,30.74.07,46.1-.11,10.25-.12,20.27-1.84,28.84-7.91,11.91-8.45,16.89-20.51,17.32-34.83.76-24.6-13.47-44.68-39.94-46.41-17.22-1.13-34.47-.16-51.71-.55-3.43-.08-4.55,1-4.5,4.49C54.91,60.12,54.81,73.49,54.81,86.86Z"/><path class="cls-4" d="M942.41,353.84c-2.14,3.21-4.21,6.47-6.43,9.63-1.87,2.64-3.75,2.67-5.62,0a106.6,106.6,0,0,0-7.43-10.08v16.25c0,2.19,0,4.69-3,4.58-2.68-.1-2.69-2.48-2.69-4.54q0-12,0-24c0-2,0-4.25,2.48-4.85,2.24-.53,3.31,1.24,4.35,2.84,2.58,4,5.25,7.9,7.75,11.93,1.19,1.92,1.93,1.77,3.1,0,2.79-4.29,5.72-8.48,8.59-12.72.87-1.27,1.81-2.51,3.62-2s2.24,2.05,2.23,3.81q0,12.93,0,25.85c0,2-.45,3.65-2.68,3.76s-3.31-1.5-3.33-3.63c-.05-5.57,0-11.14,0-16.7Z"/><path class="cls-4" d="M984.05,357.6c0-4.12,0-8.24,0-12.36,0-3.1,1.29-4.63,4.49-4.54,3.37.1,6.75-.07,10.11.07,6.79.28,11.52,4,13.4,10.53a21.58,21.58,0,0,1-.51,14,13.36,13.36,0,0,1-12.87,9.11c-3.37.08-6.74-.09-10.11.06S984,373.05,984,370C984.08,365.84,984.05,361.72,984.05,357.6Zm6.23.19c0,2.86,0,5.73,0,8.59,0,.85-.12,1.76.79,2.33,3.17,2,12.31-.58,14-4.16a16,16,0,0,0,.26-13.41c-1.84-4.38-7-6.31-13.34-4.52-3.66,1.05-1.07,4.68-1.67,7.07A17.52,17.52,0,0,0,990.28,357.79Z"/><path class="cls-4" d="M616.45,417.14c0-4.11,0-8.23,0-12.34,0-2.77,1.34-4.12,4.14-4.09,4.12,0,8.23-.07,12.34.05a9.4,9.4,0,0,1,8.88,5.79c1.72,3.85,1.48,7.64-1.49,10.77-1.5,1.59-1.56,2.47-.2,4.26,2.22,2.94,1.6,7.07,3.88,10.25,1,1.47-1.94,3.27-4.16,2.23-2.81-1.32-3.92-3.88-3.92-6.74,0-4-2-5.12-5.65-5.1-7.53,0-7.5-.05-7.71,7.34,0,2,.42,4.72-2.77,4.71-3,0-3.38-2.33-3.36-4.79C616.48,425.37,616.45,421.26,616.45,417.14Zm11.95,0c5.34,0,6-.05,6.91-1.54a7.11,7.11,0,0,0,.71-6.76c-1-2.51-3.11-2.44-5.29-2.44-8.36,0-8.25,0-8.28,7.44,0,2.58.72,3.69,3.35,3.32A18.78,18.78,0,0,1,628.4,417.14Z"/><path class="cls-4" d="M616.45,357.37c0-4.11,0-8.22,0-12.34,0-2.93,1.29-4.38,4.29-4.33,4,.07,8,0,12,.05,4.23.09,7.45,2,9.16,5.93s1.34,7.63-1.62,10.76c-1.35,1.43-1.79,2.42-.21,3.92,1.23,1.17,1.4,2.9,1.59,4.5s.35,2.92,1.56,4.06,1.56,2.36.33,3.61a3.14,3.14,0,0,1-4.13.3,7.23,7.23,0,0,1-3.47-6.65c0-3.77-1.92-4.94-5.41-5-7.73,0-7.71-.11-7.93,7.48-.07,2.07.29,4.7-2.92,4.58-2.75-.1-3.24-2.21-3.22-4.56C616.48,365.6,616.45,361.49,616.45,357.37Zm11.71-.23h0a30.28,30.28,0,0,0,4.47,0c3.38-.49,3.84-3.17,3.85-5.86s-1-4.72-4-4.81c-2.61-.07-5.22,0-7.83,0-1.34,0-2.13.46-2.11,1.92,0,2.36,0,4.72,0,7.08,0,1.29.71,1.72,1.9,1.68S626.92,357.14,628.16,357.14Z"/><path class="cls-4" d="M679.94,357.91c-.12,9.5-7.36,17-16.32,17-9.13,0-16.39-7.81-16.28-17.45.1-9.82,7.28-17.25,16.53-17.11S680.06,348.12,679.94,357.91Zm-26.25-.35c0,6.46,4.25,11.46,9.81,11.51s9.94-4.72,10-11.26-4.23-11.77-10-11.71S653.71,351.05,653.69,357.56Z"/><path class="cls-4" d="M680,417.67c0,9.68-7.38,17.38-16.47,17.24s-16-7.6-16.14-17.2,7-17.34,16.29-17.36S680,407.9,680,417.67Zm-26.26-.08c0,6.45,4.27,11.44,9.84,11.48s9.92-4.75,10-11.29-4.26-11.76-10-11.68S653.7,411.07,653.69,417.59Z"/><path class="cls-4" d="M869.73,423.23c0-6.45,0-12.28,0-18.11,0-1.95,0-4.16,2.51-4.23,2.82-.08,2.76,2.28,2.75,4.34q0,12,0,24c0,2,.39,4.24-2.18,5-2.22.64-3.37-1-4.57-2.51-4.24-5.39-8.53-10.76-12.82-16.12-.75-.93-1.24-2.14-3.16-2.79,0,5.57,0,10.87,0,16.17a17,17,0,0,1-.23,3.35,2.39,2.39,0,0,1-2.37,2,2.33,2.33,0,0,1-2.62-2.15,37.94,37.94,0,0,1-.21-5.23q0-10.49,0-21c0-2-.23-4.18,2.28-5,2.32-.74,3.35,1.07,4.51,2.53q7.47,9.38,14.91,18.76A11.05,11.05,0,0,0,869.73,423.23Z"/><path class="cls-4" d="M841.27,417.55c0,9.8-7.09,17.4-16.27,17.37s-16.21-7.58-16.15-17.46,6.89-17,16.06-17.12S841.25,407.73,841.27,417.55Zm-26.26-.1c0,6.39,4.24,11.49,9.78,11.63,5.7.15,10.36-5.05,10.32-11.52s-4.48-11.44-10-11.49S815.06,411.1,815,417.45Z"/><path class="cls-4" d="M712.37,417.62c0-4.11.06-8.23,0-12.35-.06-3.11,1.24-4.63,4.45-4.57,4.49.08,9,0,13.47,0,2,0,4,.32,4,2.83s-2,2.79-4,2.84c-3.12.08-6.24.15-9.36.07s-2.41,2.21-2.4,3.92-.82,4,2.36,4c2.62,0,5.24,0,7.86.08,1.76.06,3.34.66,3.38,2.72,0,2.27-1.61,2.89-3.54,2.92-2.62.05-5.25.09-7.87.05-1.57,0-2.1.62-2.26,2.19-.6,6.13-.3,6.51,6,6.54,2.37,0,4.74,0,7.1.14a2.62,2.62,0,0,1,2.74,2.92,2.57,2.57,0,0,1-2.8,2.46c-5.37,0-10.74.1-16.1,0-2.37-.06-3-1.89-3-4Z"/><path class="cls-4" d="M743,357.31c0-4,.08-8,0-12-.08-3.11,1.16-4.67,4.39-4.62,4.5.07,9,0,13.49,0,2,0,3.92.27,4,2.87s-2.07,2.74-4,2.8a64.43,64.43,0,0,1-7.86,0c-3-.27-4,.69-4.07,3.87,0,3.38,1,4.45,4.23,4.11a42.2,42.2,0,0,1,6.36,0c1.78.08,3.26.72,3.22,2.85s-1.49,2.73-3.29,2.77c-2.62.07-5.25.15-7.86,0-2-.09-2.73.65-2.55,2.59a23.47,23.47,0,0,1,0,3.75c-.11,1.82.79,2.41,2.47,2.39q4.88,0,9.75.05c1.9,0,3.64.59,3.56,2.9s-1.86,2.64-3.76,2.64c-4.62,0-9.24-.07-13.86,0-3.1.05-4.24-1.46-4.2-4.38C743.08,365.8,743,361.56,743,357.31Z"/><path class="cls-4" d="M876.46,357.1c0-4,.07-8,0-12-.07-3,1.15-4.44,4.17-4.42,4.61,0,9.23,0,13.85,0,1.86,0,3.65.32,3.78,2.64.15,2.62-1.81,3-3.79,3-2.62.08-5.25.21-7.86,0-2.77-.18-4.24.19-4.22,3.67s1,4.71,4.38,4.29a34.41,34.41,0,0,1,4.87,0c2,.05,4.32-.06,4.41,2.78s-2.19,2.86-4.23,2.9c-2.25,0-4.5.13-6.74,0-1.92-.1-2.79.53-2.57,2.53a16.5,16.5,0,0,1,0,3.37c-.2,2.07.59,2.93,2.73,2.85,3.12-.1,6.24,0,9.36,0,1.89,0,3.64.52,3.65,2.81s-1.74,2.73-3.65,2.73c-4.61,0-9.23-.07-13.85,0-3,.05-4.36-1.17-4.29-4.23C876.53,365.84,876.46,361.47,876.46,357.1Z"/><path class="cls-4" d="M956.69,357.69c0-4.12.1-8.25,0-12.37-.1-3.14,1.14-4.67,4.36-4.62,4.5.07,9,0,13.5,0,2,0,4,.32,3.94,2.88s-2.11,2.75-4,2.8c-3.12.07-6.25.17-9.37.05s-2.39,2-2.24,3.57-1.37,4.36,2.24,4.32c2.62,0,5.25,0,7.87.08,1.74.06,3.29.61,3.36,2.73.08,2.39-1.61,2.86-3.51,2.9-2.49.07-5,.16-7.49,0-2-.09-2.75.6-2.55,2.57a22.36,22.36,0,0,1,0,3.75c-.14,1.79.65,2.45,2.39,2.42,3.25-.05,6.5,0,9.75.05,1.91,0,3.65.61,3.58,2.9s-1.86,2.64-3.76,2.64c-4.62,0-9.25-.07-13.87,0-3.08.05-4.24-1.4-4.17-4.37C956.76,365.94,956.69,361.82,956.69,357.69Z"/><path class="cls-4" d="M749.53,400.34c4.74.07,8,.83,10.81,2.89,1.46,1.07,2.74,2.43,1.34,4.39-1.2,1.71-2.6,1.34-4.23.39-2.73-1.58-5.7-2.61-8.94-1.9-1.9.41-3.65,1.18-4,3.42s1.3,3.47,3.11,4.09c2.47.85,5.06,1.34,7.58,2,5.34,1.43,7.74,4.09,7.83,8.66s-2.52,8.19-7.33,9.68a16.78,16.78,0,0,1-15-2c-1.8-1.2-3.26-2.78-1.85-4.94s3.2-1.23,4.85,0a11.13,11.13,0,0,0,9.6,1.86c1.86-.44,3.6-1.37,3.83-3.59s-1.4-3.42-3.18-4.11a37.79,37.79,0,0,0-5.42-1.4c-7-1.55-10.22-4.89-9.71-10.21C739.41,403.78,743.8,400.38,749.53,400.34Z"/><path class="cls-4" d="M950.66,400.34c3.55.13,6.94.81,9.81,3.09,1.39,1.11,2.27,2.49,1.11,4.19s-2.61,1.38-4.23.43c-3-1.74-6.13-2.79-9.64-1.74-1.83.54-3.18,1.53-3.23,3.6a3.47,3.47,0,0,0,2.74,3.58c2.74.81,5.53,1.44,8.29,2.22,4.92,1.39,7.13,3.91,7.31,8.23.2,4.77-1.9,8.14-6.5,9.78-5.76,2.06-11.3,1.57-16.3-2.21-1.48-1.11-2.66-2.55-1.33-4.43s2.95-1.45,4.56-.27a11.17,11.17,0,0,0,11,1.75,3.64,3.64,0,0,0,2.78-3.18c.16-1.88-.83-3-2.4-3.84a22.61,22.61,0,0,0-6.08-1.73c-7.27-1.56-10.22-4.77-9.73-10.52C939.24,403.87,943.83,400.41,950.66,400.34Z"/><path class="cls-4" d="M708.53,364.49c0,5.95-4.52,10.05-11.81,10.37a15.74,15.74,0,0,1-10.89-3.21c-1.57-1.25-2.89-2.69-1.36-4.69,1.37-1.81,3-1.21,4.59,0a11.14,11.14,0,0,0,10.27,1.86c1.73-.5,3.22-1.43,3.32-3.56a3.71,3.71,0,0,0-2.91-3.87c-2.48-.81-5-1.32-7.57-2-5.2-1.34-7.77-4.38-7.74-9.12s3-8.37,8-9.43c4.68-1,9.2-.49,13.26,2.28,1.5,1,2.86,2.38,1.7,4.35s-2.71,1.56-4.48.53c-3-1.72-6.15-2.72-9.66-1.62-1.7.53-2.93,1.5-3.08,3.33a3.46,3.46,0,0,0,2.55,3.72c2.83.92,5.77,1.53,8.64,2.35C706.28,357.18,708.51,359.93,708.53,364.49Z"/><path class="cls-4" d="M778.86,400.33c4.3.13,7.54.92,10.32,3.05,1.35,1,2.45,2.34,1.25,4.14s-2.52,1.56-4.2.58c-3.08-1.79-6.36-2.92-10-1.72-1.68.55-3,1.56-3.06,3.38a3.53,3.53,0,0,0,2.66,3.67c2.72.86,5.53,1.49,8.29,2.25,5.06,1.38,7.41,4,7.57,8.47s-2.23,8.07-6.8,9.66a16.69,16.69,0,0,1-15.7-2c-1.68-1.15-3-2.62-1.78-4.66s3.11-1.48,4.81-.24a11.1,11.1,0,0,0,10.64,1.66c1.63-.56,2.85-1.55,2.93-3.47.08-1.75-1-2.7-2.35-3.5-1.88-1.12-4-1.35-6.06-1.8-7.51-1.61-10.4-4.84-9.74-10.83C768.24,403.57,772.83,400.28,778.86,400.33Z"/><path class="cls-4" d="M908.68,431.46a2.58,2.58,0,0,1-1.56,2.81,2.42,2.42,0,0,1-3.25-1c-.27-.42-.48-.88-.75-1.3-1.06-1.61-.87-4.64-2.9-4.86-4.31-.48-8.71-.15-13.07-.05-.84,0-1,1.06-1.28,1.71-.6,1.23-1.08,2.52-1.68,3.75-.73,1.5-1.89,2.45-3.6,1.78s-1.69-2.28-1.09-3.78c1.39-3.47,2.86-6.91,4.29-10.37,2.34-5.64,4.65-11.3,7-16.93.54-1.27,1.31-2.43,2.91-2.58s2.54.92,3.09,2.22q5.84,13.78,11.6,27.59A8.87,8.87,0,0,1,908.68,431.46ZM889.2,421h9l-4.48-10.47C892.1,414.34,890.79,417.35,889.2,421Z"/><path class="cls-4" d="M1088.15,371.38c0,1.33-.22,2.44-1.45,2.9a2.49,2.49,0,0,1-3.26-1c-.14-.21-.26-.43-.4-.63-1.25-1.8-1-5.17-3.28-5.5-4.15-.61-8.45-.23-12.68-.18-1,0-1.28,1-1.63,1.83-.56,1.25-1.09,2.51-1.67,3.75-.73,1.53-1.89,2.43-3.6,1.75s-1.7-2.29-1.1-3.78c1.54-3.81,3.15-7.59,4.72-11.39,2.2-5.29,4.37-10.59,6.61-15.86.53-1.26,1.19-2.5,2.85-2.62a3.07,3.07,0,0,1,3.16,2.17c3.85,9.06,7.63,18.14,11.41,27.22A7.25,7.25,0,0,1,1088.15,371.38Zm-14.82-20.81c-1.34,3.07-2.49,5.76-3.68,8.44-.46,1-.69,2.05.87,2.08,2.2.05,4.94,1,6.46-.44,1.33-1.26-.86-3.25-1.4-4.93A55,55,0,0,0,1073.33,350.57Z"/><path class="cls-4" d="M714.07,357.87c0-4.23,0-8.47,0-12.71,0-3.14,1.39-4.57,4.55-4.46,3,.1,6-.1,9,.06a10.85,10.85,0,0,1-.21,21.66c-2.44.13-5.73-1.17-7.09.64-1.22,1.64-.51,4.76-.55,7.23,0,2-.37,4-2.85,4s-2.78-2.08-2.79-4.05C714.05,366.1,714.07,362,714.07,357.87Zm5.67-6.2c.09,5.87-.78,5.3,4.56,5.35,5.15,0,7.48-1.71,7.46-5.5,0-3.28-2.09-5.16-5.83-5.09C718.57,346.58,719.91,345.68,719.74,351.67Z"/><path class="cls-4" d="M587.64,357.76c0-4.37,0-8.73,0-13.09,0-2.66,1.24-3.93,3.84-3.94,3.24,0,6.49-.15,9.72,0,5.9.36,9.92,5,9.8,11.1a10.35,10.35,0,0,1-10.35,10.53c-7.43.25-7.45.25-7.56,7.61,0,2.11-.06,4.34-2.86,4.26-2.53-.08-2.6-2.2-2.59-4.17C587.66,366,587.64,361.87,587.64,357.76Zm5.43-6.28c.08,6-.76,5.5,4.45,5.54s7.56-1.53,7.62-5.33c.06-3.54-1.91-5.34-6-5.26C592.25,346.57,593.18,345.66,593.07,351.48Z"/><path class="cls-4" d="M587.64,417.5c0-4.24.06-8.48,0-12.72,0-2.87,1.34-4.09,4.1-4.06,3,0,6-.1,9,0,6.18.24,10.36,4.77,10.29,11s-4.38,10.5-10.61,10.65c-7.19.18-7.21.18-7.3,7.5,0,2.08,0,4.39-2.75,4.37s-2.7-2.37-2.69-4.43C587.65,425.73,587.64,421.61,587.64,417.5Zm5.43-5.95c.07,5.9-.75,5.43,4.52,5.47s7.53-1.59,7.55-5.4c0-3.43-1.89-5.26-5.67-5.19C592.1,406.56,593.2,405.7,593.07,411.55Z"/><path class="cls-4" d="M786.42,340.61a17,17,0,0,1,6.73,1.43c1.77.71,2.75,1.84,2.16,3.72s-2,2.39-3.87,1.74c-.59-.21-1.18-.4-1.78-.56-5.15-1.37-9.86,0-12.44,3.67-2.78,3.94-2.73,10.61.12,14.46,2.62,3.52,7.45,4.81,12.52,3.38,1.29-.37,2.55-1.23,3.95-.53a2.91,2.91,0,0,1,1.67,2.72c0,1.69-1.21,2.31-2.49,2.89-6,2.74-14.36,1.27-19.19-3.37s-6.32-12.79-3.61-19.44C772.68,344.61,778.84,340.64,786.42,340.61Z"/><path class="cls-4" d="M1047.74,340.61a16.58,16.58,0,0,1,7,1.62,2.73,2.73,0,0,1,1.64,3.67c-.56,1.73-1.89,2.19-3.59,1.66-.47-.15-1-.28-1.44-.41-4.6-1.29-9-1.15-12.37,2.72s-3.37,8.45-1.71,13,6.84,7,12,6a29,29,0,0,0,3.22-1c1.82-.57,3.26-.16,3.9,1.74s-.42,3-2.06,3.8c-9.13,4.47-21.14-.95-23.73-10.74C1027.52,351.05,1035.33,340.57,1047.74,340.61Z"/><path class="cls-4" d="M857,364.78c2.79-7,5.19-13.26,7.72-19.41.89-2.16,1.32-5.65,4.79-4.3s1.4,4.18.49,6.34c-3.32,7.93-6.72,15.83-10.1,23.73-.64,1.5-1.27,3.14-3.25,3.18s-2.71-1.52-3.36-3q-5.34-12.55-10.67-25.11c-.84-2-1.48-4.05,1-5.16s3.56.9,4.38,2.79C850.82,350.48,853.69,357.18,857,364.78Z"/><path class="cls-4" d="M685.39,417.43c0-4,.07-8,0-12-.09-3.28,1.25-4.85,4.64-4.76,4.37.11,8.73,0,13.1,0,1.92,0,3.64.5,3.74,2.73s-1.76,2.84-3.59,2.91c-3,.13-6,.21-9,.09-3.69-.16-2.63,2.5-2.7,4.39s-.66,4.23,2.69,4c2.36-.15,4.74,0,7.11,0,1.86,0,3.3.69,3.29,2.71s-1.52,2.69-3.34,2.71c-2.12,0-4.26.15-6.36,0-2.54-.2-3.7.63-3.5,3.33.17,2.36,0,4.74,0,7.11,0,2-.68,3.6-2.88,3.62-2.35,0-3.17-1.66-3.18-3.79C685.38,426.16,685.39,421.79,685.39,417.43Z"/><path class="cls-4" d="M809,359.63c0-3.49-.12-7,0-10.48.09-2.18-.77-2.87-2.82-2.75a31.53,31.53,0,0,1-4.86-.1,2.71,2.71,0,0,1-2.74-2.95,2.54,2.54,0,0,1,2.71-2.55c7.11-.06,14.23-.08,21.34,0a2.65,2.65,0,0,1,2.88,2.8c0,1.92-1.33,2.5-2.93,2.76-.24,0-.49,0-.74.06-6.69.6-6.7.6-6.71,7.27,0,5.49,0,11,0,16.48,0,2.23-.43,4.14-3.11,4.13s-3.1-2-3.08-4.17C809,366.62,809,363.13,809,359.63Z"/><path class="cls-4" d="M912.75,417.43c0-4.11,0-8.23,0-12.34,0-2.21.55-4.25,3.12-4.22s3,2.13,3,4.3c0,6.49.25,13,0,19.45-.14,3.42,1.05,4.41,4.25,4.13a71.58,71.58,0,0,1,7.47,0c1.93,0,3.59.65,3.56,2.92s-1.72,2.75-3.66,2.75c-4.49,0-9-.08-13.46,0-3,.07-4.34-1.34-4.32-4.27C912.77,425.92,912.75,421.68,912.75,417.43Z"/><path class="cls-4" d="M1092.45,357.17c0-4.12,0-8.24,0-12.35,0-2.14.63-3.89,3-3.93s3.07,1.72,3.07,3.85c0,7,.1,14,0,21,0,2.27.65,3.12,3,3,3-.13,6,0,9,.06,1.73.05,3.35.55,3.37,2.69s-1.5,2.94-3.5,2.93H1096c-2.49,0-3.6-1.3-3.59-3.74C1092.47,366.15,1092.45,361.66,1092.45,357.17Z"/><path class="cls-4" d="M803.23,417.81c0,4.25,0,8.49,0,12.73,0,2.11-.69,3.81-3.13,3.76-2.23-.05-2.91-1.71-2.92-3.62q0-13.11,0-26.22c0-2,.88-3.56,3-3.59,2.4,0,3.08,1.73,3.08,3.83C803.24,409.07,803.23,413.44,803.23,417.81Z"/><path class="cls-4" d="M1024.37,357.67c0,4.37,0,8.74,0,13.1,0,2.05-.8,3.48-3,3.52s-3-1.53-3-3.48c0-8.73,0-17.46,0-26.2,0-2.15.89-3.82,3.21-3.74,2.1.08,2.82,1.7,2.8,3.71C1024.35,348.94,1024.37,353.31,1024.37,357.67Z"/><path class="cls-4" d="M830.71,357.15c0-4.12,0-8.23,0-12.35,0-2.14.64-3.89,3-3.91s3,1.74,3,3.87q0,12.92,0,25.83c0,2.18-.85,3.76-3.21,3.7s-2.82-1.69-2.82-3.66C830.72,366.14,830.71,361.64,830.71,357.15Z"/></g></g></svg>